# Blender v2.92.0 OBJ File: 'untitled.blend'
# www.blender.org
mtllib d20.mtl
o dice20
v 5.470441 6.088786 6.098084
v 5.487210 12.573685 -11.279719
v 9.018225 14.701904 -0.583189
v 9.024283 3.961828 -4.591096
v -5.976306 12.571630 -11.291558
v -0.242849 2.645242 -11.209220
v -0.253220 -1.362623 -0.469130
v -9.524122 3.958503 -4.610249
v -9.530182 14.698588 -0.602350
v -5.993092 6.086731 6.086293
v -0.252654 20.023090 -4.724325
v -0.263025 16.015175 6.015795
vn 0.5771 -0.7427 0.3397
vn 0.9338 -0.1246 0.3353
vn 0.9345 0.1249 -0.3333
vn 0.5782 -0.3390 -0.7422
vn 0.3573 -0.8752 -0.3262
vn 0.5776 0.7429 -0.3385
vn 0.0007 0.6609 -0.7505
vn 0.0010 -0.0077 -1.0000
vn -0.9338 0.1246 -0.3353
vn -0.5771 0.7427 -0.3397
vn -0.5765 -0.3392 -0.7434
vn -0.3563 -0.8753 -0.3270
vn -0.5776 -0.7429 0.3385
vn -0.9345 -0.1249 0.3333
vn -0.5782 0.3390 0.7422
vn -0.0010 0.0077 1.0000
vn -0.0007 -0.6609 0.7505
vn -0.3573 0.8752 0.3262
vn 0.5765 0.3392 0.7434
vn 0.3563 0.8753 0.3270
usemtl None.012
s 1
f 1//1 7//1 4//1
f 1//2 4//2 3//2
f 2//3 3//3 4//3
f 6//4 2//4 4//4
f 7//5 6//5 4//5
f 2//6 11//6 3//6
f 2//7 5//7 11//7
f 5//8 2//8 6//8
f 5//9 8//9 9//9
f 11//10 5//10 9//10
f 8//11 5//11 6//11
f 8//12 6//12 7//12
f 7//13 10//13 8//13
f 8//14 10//14 9//14
f 9//15 10//15 12//15
f 12//16 10//16 1//16
f 10//17 7//17 1//17
f 12//18 11//18 9//18
f 3//19 12//19 1//19
f 11//20 12//20 3//20
