# Blender v2.92.0 OBJ File: 'holes.blend'
# www.blender.org
mtllib EEEE.mtl
o dice8
v 4.116326 -4.157376 1.979203
v 3.589514 -4.107693 1.930674
v 4.440043 -6.013333 -6.344261
v 5.244977 2.110214 -3.856395
v 4.718165 2.159897 -3.904924
v 4.394446 4.015848 4.418533
vn -0.1111 -0.9709 0.2122
vn -0.1142 -0.2805 0.9530
vn 0.9907 -0.0688 0.1177
vn 0.9909 -0.1180 0.0649
vn 0.1142 0.2805 -0.9530
vn -0.9907 0.0688 -0.1177
vn -0.9909 0.1180 -0.0649
vn 0.1111 0.9709 -0.2122
usemtl None.006
s 1
f 2//1 3//1 1//1
f 2//2 1//2 6//2
f 4//3 6//3 1//3
f 3//4 4//4 1//4
f 3//5 5//5 4//5
f 5//6 3//6 2//6
f 6//7 5//7 2//7
f 4//8 5//8 6//8
o Cone_Cone.001
v 3.258824 9.065197 -8.252398
v 4.105880 -9.876169 -12.435408
v 2.781016 -9.869472 -12.523269
v 2.374498 -6.903654 3.865601
vt 0.250000 0.490000
vt 0.250000 0.250000
vt 0.457846 0.130000
vt 0.750000 0.490000
vt 0.957846 0.130000
vt 0.542154 0.130000
vt 0.042154 0.130000
vn 0.9946 0.0220 0.1016
vn 0.0657 0.2180 -0.9737
vn -0.0168 -0.9840 0.1776
vn -0.9990 0.0321 -0.0306
usemtl None
s off
f 7/1/9 10/2/9 8/3/9
f 7/4/10 8/5/10 9/6/10
f 8/3/11 10/2/11 9/7/11
f 9/7/12 10/2/12 7/1/12
o Cone.001_Cone.002
v 0.336318 -19.504295 -4.288088
v 2.869800 -10.935925 24.664282
v 1.575109 -10.826984 24.716129
v 3.774427 16.514542 5.881552
vt 0.250000 0.490000
vt 0.250000 0.250000
vt 0.457846 0.130000
vt 0.750000 0.490000
vt 0.957846 0.130000
vt 0.542154 0.130000
vt 0.042154 0.130000
vn 0.9950 -0.0768 -0.0643
vn -0.0688 -0.9550 0.2886
vn 0.0802 0.5611 0.8239
vn -0.9958 0.0907 0.0154
usemtl None
s off
f 11/8/13 14/9/13 12/10/13
f 11/11/14 12/12/14 13/13/14
f 12/10/15 14/9/15 13/14/15
f 13/14/16 14/9/16 11/8/16
o Cone.002_Cone.003
v -4.380115 -4.090001 12.185489
v 0.368306 19.541285 -2.344077
v -0.318784 19.636362 -2.397327
v -1.554334 2.479962 -12.543879
vt 0.250000 0.490000
vt 0.250000 0.250000
vt 0.457846 0.130000
vt 0.750000 0.490000
vt 0.957846 0.130000
vt 0.542154 0.130000
vt 0.042154 0.130000
vn 0.9855 -0.1539 0.0717
vn 0.0063 0.5228 0.8524
vn 0.1352 0.4971 -0.8571
vn -0.9895 0.1194 -0.0814
usemtl None
s off
f 15/15/17 18/16/17 16/17/17
f 15/18/18 16/19/18 17/20/18
f 16/17/19 18/16/19 17/21/19
f 17/21/20 18/16/20 15/15/20
o Cone.003_Cone.004
v 0.796243 10.359854 9.452133
v 0.771047 5.486735 -23.891947
v -0.983445 5.505553 -23.847172
v 0.071530 -10.475540 -10.191093
vt 0.250000 0.490000
vt 0.250000 0.250000
vt 0.457846 0.130000
vt 0.750000 0.490000
vt 0.957846 0.130000
vt 0.542154 0.130000
vt 0.042154 0.130000
vn 0.9992 -0.0395 0.0050
vn 0.0069 0.9895 -0.1446
vn -0.0263 -0.6504 -0.7591
vn -0.9983 -0.0181 0.0560
usemtl None
s off
f 19/22/21 22/23/21 20/24/21
f 19/25/22 20/26/22 21/27/22
f 20/24/23 22/23/23 21/28/23
f 21/28/24 22/23/24 19/22/24
o Cone.004_Cone.005
v -0.227959 -5.231188 -5.293480
v -0.704290 -12.393915 10.062967
v -0.976044 -12.399616 10.049466
v -1.172256 2.153535 10.595654
vt 0.250000 0.490000
vt 0.250000 0.250000
vt 0.457846 0.130000
vt 0.750000 0.490000
vt 0.957846 0.130000
vt 0.542154 0.130000
vt 0.042154 0.130000
vn 0.9985 0.0305 0.0452
vn 0.0399 -0.9060 -0.4214
vn -0.0488 -0.0381 0.9981
vn -0.9985 -0.0114 -0.0540
usemtl None
s off
f 23/29/25 26/30/25 24/31/25
f 23/32/26 24/33/26 25/34/26
f 24/31/27 26/30/27 25/35/27
f 25/35/28 26/30/28 23/29/28
