# Blender v2.92.0 OBJ File: 'holes.blend'
# www.blender.org
mtllib holes.mtl
o dice10.2
v 11.923313 11.731915 5.497008
v 11.523556 7.828806 2.697092
v 4.810545 2.714411 9.166831
v 9.606241 12.190578 9.698786
v -1.728823 12.465558 6.423482
v 0.188453 8.103786 -0.578209
v -2.128580 8.562449 3.623565
v 4.271025 5.586487 -1.057620
v 1.168722 12.643997 10.271379
v 5.523689 14.707878 10.178194
v 8.625973 7.650368 -1.150804
v 4.984168 17.579952 -0.046257
vn 0.7751 -0.4188 0.4731
vn 0.4081 -0.8731 -0.2668
vn -0.5311 -0.8226 -0.2031
vn 0.0628 -0.0876 0.9942
vn -0.7445 -0.3371 0.5763
vn -0.7445 -0.3372 0.5763
vn -0.7751 0.4188 -0.4731
vn -0.0628 0.0876 -0.9942
vn -0.4081 0.8731 0.2668
vn 0.7445 0.3371 -0.5763
vn 0.5311 0.8226 0.2031
usemtl None.006
s 1
f 1//1 4//1 3//1
f 1//1 3//1 2//1
f 2//2 3//2 8//2
f 2//2 8//2 11//2
f 8//3 3//3 7//3
f 8//3 7//3 6//3
f 10//4 9//4 3//4
f 10//4 3//4 4//4
f 7//5 3//6 9//5
f 7//5 9//5 5//5
f 5//7 12//7 6//7
f 5//7 6//7 7//7
f 8//8 6//8 12//8
f 8//8 12//8 11//8
f 5//9 9//9 10//9
f 5//9 10//9 12//9
f 1//10 2//10 11//10
f 1//10 11//10 12//10
f 10//11 4//11 1//11
f 10//11 1//11 12//11
o dice10.1
v 8.235911 -4.052221 7.082738
v 3.538194 -0.572682 12.725767
v 2.983818 0.499548 10.314959
v 8.658780 1.592964 8.908311
v 4.335700 -1.499464 6.238569
v 5.725625 -3.807172 6.130061
v 2.479663 -0.994036 8.127663
v 6.048481 -0.817732 13.678444
v 3.115338 -6.217838 10.900223
v 7.438406 -3.125440 13.569936
v 9.294442 -3.630867 11.680840
v 8.790287 -5.124452 9.493546
vn 0.3647 0.2617 -0.8936
vn 0.9745 -0.0005 -0.2243
vn 0.7055 0.3973 0.5869
vn -0.0706 0.9053 0.4189
vn -0.2812 0.8215 -0.4961
vn -0.7055 -0.3973 -0.5869
vn -0.9745 0.0005 0.2243
vn -0.3647 -0.2617 0.8936
vn 0.2812 -0.8215 0.4961
vn 0.0706 -0.9053 -0.4189
usemtl None.006
s 1
f 16//12 13//12 18//12
f 16//12 18//12 17//12
f 13//13 16//13 23//13
f 13//13 23//13 24//13
f 22//14 23//14 16//14
f 22//14 16//14 20//14
f 20//15 16//15 15//15
f 20//15 15//15 14//15
f 15//16 16//16 17//16
f 15//16 17//16 19//16
f 19//17 17//17 18//17
f 19//17 18//17 21//17
f 19//18 21//18 14//18
f 19//18 14//18 15//18
f 20//19 14//19 21//19
f 20//19 21//19 22//19
f 22//20 21//20 24//20
f 22//20 24//20 23//20
f 24//21 21//21 18//21
f 24//21 18//21 13//21
o dice8
v 8.392399 -3.702286 4.484349
v 2.537531 -1.429932 3.600088
v 5.812778 -3.870467 -1.612688
v 10.618147 0.338998 0.132426
v 4.763279 2.611352 -0.751835
v 7.342885 2.779534 5.345196
vn -0.3798 -0.9063 0.1857
vn -0.2085 -0.1619 0.9645
vn 0.8594 0.0719 0.5063
vn 0.6881 -0.6725 -0.2726
vn 0.2085 0.1619 -0.9645
vn -0.8594 -0.0719 -0.5063
vn -0.6881 0.6725 0.2726
vn 0.3798 0.9063 -0.1857
usemtl None.006
s 1
f 26//22 27//22 25//22
f 26//23 25//23 30//23
f 28//24 30//24 25//24
f 27//25 28//25 25//25
f 27//26 29//26 28//26
f 29//27 27//27 26//27
f 30//28 29//28 26//28
f 28//29 29//29 30//29
o dice20
v -20.050049 -22.212002 1.417095
v 2.944847 11.738112 -8.497608
v 1.219191 -8.546185 7.791926
v -5.461355 -11.336018 -17.255302
v -17.868011 26.960958 -4.642022
v -17.257915 10.608585 -24.939896
v -31.469547 -10.373737 -18.812206
v -39.137352 13.295121 -11.016812
v -32.456795 16.084972 14.030422
v -40.862984 -6.989210 5.272746
v -6.448500 15.122718 15.587399
v -20.660210 -5.859695 21.715033
vn -0.0018 -0.8635 -0.5043
vn 0.5512 -0.8326 -0.0543
vn 0.9402 -0.2583 -0.2220
vn 0.6276 0.0658 -0.7757
vn 0.0455 -0.3083 -0.9502
vn 0.6006 0.7900 0.1232
vn 0.4178 0.7136 -0.5623
vn -0.5512 0.8326 0.0543
vn 0.0018 0.8635 0.5043
vn -0.2941 0.7399 -0.6050
vn -0.5242 0.1084 -0.8447
vn -0.9235 -0.1893 -0.3336
vn -0.6276 -0.0658 0.7757
vn -0.4178 -0.7136 0.5623
vn -0.6006 -0.7900 -0.1232
vn -0.0455 0.3083 0.9502
vn 0.2941 -0.7400 0.6050
vn 0.5242 -0.1084 0.8447
usemtl None.012
s 1
f 31//30 37//30 34//30
f 31//31 34//31 33//31
f 32//32 33//32 34//32
f 36//33 32//33 34//33
f 37//34 36//34 34//34
f 32//35 35//35 41//35
f 35//36 32//36 36//36
f 35//37 38//37 39//37
f 41//38 35//38 39//38
f 38//39 35//39 36//39
f 38//40 36//40 37//40
f 37//41 40//41 38//41
f 39//42 40//42 42//42
f 42//43 40//43 31//43
f 40//44 37//44 31//44
f 42//45 41//45 39//45
f 33//46 42//46 31//46
f 41//47 42//47 33//47
